# xmcd CD database file
#
# Track frame offsets:
#	150
#	18045
#	32242
#	49377
#	65460
#	82472
#	99345
#	115570
#	131702
#	145302
#
# Disc length: 2163 seconds
#
# Revision: 2
# Processed by: cddbd v1.5.1PL0 Copyright (c) Steve Scherf et al.
# Submitted via: CDex 1.51
#
DISCID=8908710a
DTITLE=Michelle Wright - Now and Then
DYEAR=1992
DGENRE=Country
TTITLE0=Take It Like A Man
TTITLE1=If I'm Ever Over You
TTITLE2=Now and Then
TTITLE3=One TIme Around
TTITLE4=He Would Be Sixteen
TTITLE5=The Change
TTITLE6=Don't Start With Me
TTITLE7=Guitar Talk
TTITLE8=Fastst Healing Wounded Heart
TTITLE9=A Little More Comfortable
EXTD=YEAR: 1992
EXTT0=
EXTT1=
EXTT2=
EXTT3=
EXTT4=
EXTT5=
EXTT6=
EXTT7=
EXTT8=
EXTT9=
PLAYORDER=
